<svg version="1.1" id="Layer_1" xmlns="http://www.w3.org/2000/svg" xmlns:xlink="http://www.w3.org/1999/xlink" x="0px" y="0px"
	 width="100%" viewBox="0 0 768 368" enable-background="new 0 0 768 368" xml:space="preserve">
<path fill="#000000" opacity="1.000000" stroke="none" 
	d="
M621.219482,199.000031 
	C620.781799,214.140900 622.087952,228.807617 620.366699,243.434189 
	C618.490662,259.377136 605.674744,271.124908 589.610718,271.310333 
	C581.147339,271.408051 572.635742,272.146362 564.873169,267.298462 
	C557.419434,262.643433 552.818298,256.486786 552.681396,247.448730 
	C552.655273,245.724136 553.053528,244.121338 553.990479,242.703873 
	C556.064636,239.565979 558.984497,238.539948 562.100830,240.713074 
	C565.062500,242.778412 564.960449,245.772614 562.921997,248.623367 
	C557.867798,255.691589 558.052002,258.402740 565.238708,263.498932 
	C574.204285,269.856567 584.215332,270.548218 594.260071,266.642914 
	C603.730042,262.961029 608.693237,254.976852 609.419006,245.380920 
	C610.307129,233.637802 609.630554,221.776337 609.630554,209.948639 
	C608.384705,209.561661 608.314392,210.664185 607.973572,211.281677 
	C601.838501,222.396606 592.940491,229.137772 579.748962,228.074585 
	C566.750732,227.026993 556.866211,218.442932 553.414001,204.947647 
	C550.348633,192.964294 550.063354,180.869324 555.615234,169.342575 
	C561.004028,158.154297 569.933044,152.062225 582.455139,151.694672 
	C594.870972,151.330231 602.510498,158.332443 607.927429,168.599686 
	C608.313965,169.332397 608.682434,170.074631 609.958313,170.831650 
	C609.958313,168.675400 609.949280,166.519119 609.960754,164.362930 
	C609.973267,162.030014 610.142761,159.688629 609.998535,157.366196 
	C609.730347,153.049393 612.259521,152.620148 615.707520,152.617294 
	C619.234802,152.614380 621.339844,153.225952 621.282776,157.503342 
	C621.100525,171.166748 621.218262,184.834152 621.219482,199.000031 
M580.014832,156.361221 
	C575.270996,157.999847 571.348572,160.802567 569.038452,165.279099 
	C560.756714,181.327011 560.953552,197.759430 568.662415,213.719315 
	C574.356201,225.507278 589.048706,227.542679 598.622559,218.775864 
	C614.157410,204.550522 613.792114,174.145721 597.836121,160.356796 
	C592.930664,156.117554 587.348877,153.958878 580.014832,156.361221 
z"/>
<path fill="#000000" opacity="1.000000" stroke="none" 
	d="
M465.837769,215.840576 
	C465.835419,198.044998 465.731201,180.727814 465.894775,163.413147 
	C465.940613,158.561661 465.615753,154.627548 459.313751,155.020142 
	C459.067688,155.035477 458.779266,154.682281 458.547241,154.462189 
	C458.452484,154.372330 458.455353,154.179535 458.137573,153.063080 
	C463.926575,152.428299 469.574371,152.422577 475.184357,153.033875 
	C477.239990,153.257889 477.031799,155.525162 477.047852,157.163162 
	C477.089905,161.445618 477.062073,165.728760 477.532623,170.169800 
	C480.265106,166.312912 482.524414,162.312988 486.012207,159.223969 
	C494.495453,151.710571 504.153412,149.756104 514.800781,153.306076 
	C524.641235,156.587006 528.886169,163.876221 529.056091,177.622894 
	C529.212463,190.275162 529.233154,202.933304 529.018616,215.583878 
	C528.934021,220.573807 529.078674,224.735931 535.734436,224.297989 
	C536.197327,224.267517 536.710632,225.003113 537.123779,226.219940 
	C528.042297,227.578003 519.014404,227.174225 510.149384,227.154907 
	C509.823975,224.791183 510.674072,224.217178 511.416626,224.269424 
	C517.373291,224.688644 518.015869,221.256683 517.915527,216.381683 
	C517.638062,202.900620 517.757019,189.411392 517.713196,175.925415 
	C517.709900,174.926773 517.765381,173.911301 517.610901,172.932495 
	C516.568054,166.325729 514.779358,159.889206 507.888397,157.187363 
	C500.934967,154.461060 494.382568,156.340637 488.831757,161.105896 
	C481.644775,167.275681 477.839294,175.411896 477.402954,184.717438 
	C476.880890,195.850586 477.230682,207.022400 477.048309,218.174942 
	C476.985840,221.997421 478.049500,224.317032 482.363617,224.027206 
	C483.511871,223.950058 484.733765,224.202087 485.363953,226.983597 
	C476.031921,227.450104 466.991425,227.451675 457.503723,225.985519 
	C462.250580,224.049362 467.729706,223.246124 465.837769,215.840576 
z"/>
<path fill="#000000" opacity="1.000000" stroke="none" 
	d="
M187.124756,219.888260 
	C174.216476,204.857971 173.124069,179.636322 184.280319,163.765976 
	C193.978485,149.969818 218.814285,144.893860 231.072495,164.610809 
	C231.986053,166.080215 232.446533,168.033768 234.647293,168.832428 
	C236.499039,165.344421 235.663483,161.639114 235.573730,158.140930 
	C235.470337,154.110657 236.729782,152.561081 240.944351,152.558334 
	C245.046402,152.555664 246.443359,153.826782 246.406784,157.987625 
	C246.237030,177.299927 246.430161,196.615372 246.268967,215.927826 
	C246.228546,220.771927 246.412613,224.742584 252.838867,224.192505 
	C253.639526,224.123978 254.416428,224.672302 254.840393,226.285431 
	C251.235931,228.128799 247.260040,227.143616 243.505920,227.196869 
	C235.679291,227.307892 235.676224,227.193802 235.666962,219.271362 
	C235.662949,215.835373 235.666290,212.399399 235.666290,208.321213 
	C218.860931,230.846680 204.869095,234.114212 187.124756,219.888260 
M234.695709,181.782974 
	C233.432907,174.588440 230.745132,168.021286 225.721878,162.630234 
	C215.175613,151.311813 199.851730,153.214523 193.387756,167.307709 
	C186.461395,182.409012 186.807358,198.188248 193.747299,213.190155 
	C199.466034,225.552200 214.522186,227.926041 224.186584,218.390198 
	C234.158417,208.550980 237.191208,196.319275 234.695709,181.782974 
z"/>
<path fill="#000000" opacity="1.000000" stroke="none" 
	d="
M314.576172,166.701111 
	C316.275940,161.897873 316.690216,157.013351 320.204865,151.518982 
	C328.210266,170.550583 333.532776,189.104156 340.474518,207.009766 
	C342.653168,206.366745 342.469330,204.832489 342.857971,203.642838 
	C347.408447,189.713562 351.957062,175.783661 356.500702,161.852158 
	C358.399506,156.030136 358.065643,155.591125 352.072754,155.313751 
	C350.540985,155.242859 348.724823,155.914261 347.052063,153.392120 
	C355.209747,152.158371 362.849854,152.553436 370.677673,153.047897 
	C370.208649,155.912109 368.342133,155.327515 367.080536,155.281891 
	C363.107300,155.138199 361.137909,156.979401 359.926331,160.738770 
	C353.442871,180.855804 346.768677,200.911560 340.096222,220.967148 
	C339.435364,222.953506 339.267517,225.266098 336.351135,227.305115 
	C328.532257,209.264557 323.499969,190.462997 315.930023,171.459976 
	C310.107880,190.590317 304.589447,208.722672 299.087158,226.801956 
	C295.503906,226.152069 295.493622,223.771881 294.848236,222.062897 
	C288.143005,204.307205 281.492523,186.530609 274.902313,168.731842 
	C270.911652,157.953873 270.971161,157.931839 261.528687,153.515213 
	C271.997009,152.549286 282.474976,152.688812 292.993805,153.469757 
	C291.044128,156.116852 288.458923,154.976273 286.185120,155.349472 
	C283.993011,155.709274 282.081696,156.262436 283.149353,159.135544 
	C289.112671,175.183121 295.100952,191.221436 301.640045,208.763428 
	C306.223389,193.904205 310.358185,180.499222 314.576172,166.701111 
z"/>
<path fill="#000000" opacity="1.000000" stroke="none" 
	d="
M649.022827,212.840027 
	C641.753357,199.884003 640.721252,186.664734 645.620239,173.129562 
	C651.212036,157.680161 666.778015,149.039337 683.181091,151.900269 
	C699.495361,154.745682 711.178284,168.246658 711.306152,184.632172 
	C711.352600,190.589172 711.903076,196.587677 710.204285,202.472137 
	C706.348511,215.827972 697.923340,224.670181 684.122681,226.960648 
	C670.032410,229.299179 657.724609,225.657837 649.022827,212.840027 
M675.777161,224.699768 
	C684.877441,225.016418 690.820923,220.222031 694.873108,212.646286 
	C700.205994,202.676102 700.470032,191.896957 699.214722,181.034409 
	C698.406433,174.040070 696.431946,167.355469 691.872314,161.696274 
	C685.601807,153.913788 676.409302,152.211029 667.779358,157.236008 
	C663.705017,159.608414 660.928589,163.169037 659.221191,167.360107 
	C653.098999,182.387924 653.088135,197.529419 659.602112,212.419724 
	C662.481750,219.002319 667.574036,223.415115 675.777161,224.699768 
z"/>
<path fill="#000000" opacity="1.000000" stroke="none" 
	d="
M154.235779,221.397339 
	C162.565109,216.224655 163.006104,207.649017 164.238052,199.510437 
	C166.564896,200.212738 166.214661,201.745636 166.224869,202.978073 
	C166.280090,209.643250 166.180054,216.310410 166.295227,222.974106 
	C166.352325,226.278198 164.810196,227.289383 161.714447,227.279022 
	C142.217804,227.213852 122.720810,227.260162 103.223961,227.236542 
	C101.794693,227.234818 100.143967,227.567627 99.246140,225.692108 
	C99.484673,225.351074 99.672356,224.748550 100.024666,224.628250 
	C107.619232,222.035385 107.619370,222.045776 107.619865,213.744843 
	C107.621506,186.248871 107.626511,158.752899 107.628716,131.256927 
	C107.629402,122.607338 107.627228,122.607338 99.697556,120.639366 
	C102.258759,118.245819 121.575333,117.850082 126.437561,120.092094 
	C126.324661,120.363388 126.257828,120.836533 126.089607,120.875847 
	C118.437019,122.664322 118.395554,122.660057 118.433205,130.689667 
	C118.558952,157.505508 118.707588,184.321228 118.865318,211.136917 
	C118.940712,223.952728 118.963341,224.161453 131.865189,223.888367 
	C139.244919,223.732162 146.920563,225.671143 154.235779,221.397339 
z"/>
<path fill="#000000" opacity="1.000000" stroke="none" 
	d="
M386.835632,198.000000 
	C386.841553,171.187531 386.758881,144.874466 386.931366,118.563080 
	C386.965027,113.428993 386.474915,109.531029 380.005920,109.982574 
	C379.691315,110.004524 379.333038,109.400620 377.856110,108.034966 
	C384.741302,107.422340 390.523682,107.356613 396.268494,108.051323 
	C398.283112,108.294945 398.067200,110.619110 398.084290,112.233742 
	C398.151245,118.561340 398.134857,124.889908 398.135712,131.218109 
	C398.139557,159.362473 398.209686,187.507172 398.072479,215.650864 
	C398.048492,220.571838 397.987244,224.818680 404.714172,224.293732 
	C405.181122,224.257294 405.707367,224.981079 406.267700,225.397110 
	C403.053864,227.792831 383.283051,228.104935 378.969086,225.977493 
	C378.817078,224.610779 379.855713,224.084000 380.797729,224.151947 
	C386.675171,224.575897 387.061462,220.972992 386.898682,216.483749 
	C386.681580,210.496292 386.839417,204.495224 386.835632,198.000000 
z"/>
<path fill="#000000" opacity="1.000000" stroke="none" 
	d="
M437.332153,202.999481 
	C437.332062,208.329620 437.465057,213.164825 437.288239,217.988663 
	C437.152283,221.698380 437.904419,224.269394 442.363770,224.027847 
	C443.664124,223.957413 445.010315,224.228088 446.025909,226.770401 
	C436.460388,227.610367 427.395325,227.354218 418.058167,226.987488 
	C418.551910,224.731064 419.318237,224.149033 420.115173,224.206680 
	C426.506958,224.669113 426.778748,220.721863 426.731445,215.845932 
	C426.561859,198.358505 426.549225,180.867157 426.739594,163.380142 
	C426.794098,158.375504 426.201965,154.645050 419.955231,155.182709 
	C419.661072,155.208008 419.289856,155.023727 419.052429,154.821899 
	C418.832184,154.634705 418.743164,154.293152 418.091888,153.079376 
	C424.127991,152.368942 429.801392,152.382767 435.401825,153.021912 
	C438.103516,153.330261 437.285004,156.186737 437.293304,158.027634 
	C437.360382,172.851395 437.331482,187.675598 437.332153,202.999481 
z"/>
<path fill="#000000" opacity="1.000000" stroke="none" 
	d="
M425.937866,132.000214 
	C425.004761,128.416321 425.624817,125.665726 428.704315,123.952835 
	C431.082550,122.630013 433.523743,122.793312 435.744293,124.370049 
	C438.020966,125.986687 438.709991,128.336121 438.141174,130.968750 
	C437.561127,133.653381 435.707764,135.375854 433.093323,135.895325 
	C429.970490,136.515808 427.656677,135.034592 425.937866,132.000214 
z"/>
</svg>